<svg width="424" height="23" viewBox="0 0 424 23" fill="none" xmlns="http://www.w3.org/2000/svg">
<path d="M3.10156 0.9375V16.1602H7.73047V0.9375H9.86328V16.1602H14.457V0.9375H16.6133V18H0.945312V0.9375H3.10156ZM24.1391 12.5977H22.9672V18H20.893V5.32031H22.9672V10.6875H23.9984L27.4555 5.32031H29.9281L25.6977 11.3555L30.2328 18H27.6313L24.1391 12.5977ZM32.1336 11.0742C32.1336 9.23047 32.5789 7.77344 33.4695 6.70312C34.368 5.625 35.5516 5.08594 37.0203 5.08594C38.4891 5.08594 39.6688 5.60938 40.5594 6.65625C41.4578 7.70312 41.9188 9.12891 41.9422 10.9336V12.2695C41.9422 14.1055 41.4969 15.5586 40.6063 16.6289C39.7156 17.6992 38.5281 18.2344 37.0438 18.2344C35.575 18.2344 34.3953 17.7148 33.5047 16.6758C32.6219 15.6367 32.1648 14.2305 32.1336 12.457V11.0742ZM34.2078 12.2695C34.2078 13.5742 34.4617 14.6016 34.9695 15.3516C35.4852 16.0938 36.1766 16.4648 37.0438 16.4648C38.8719 16.4648 39.8133 15.1445 39.868 12.5039V11.0742C39.868 9.77734 39.6102 8.75391 39.0945 8.00391C38.5789 7.24609 37.8875 6.86719 37.0203 6.86719C36.1688 6.86719 35.4852 7.24609 34.9695 8.00391C34.4617 8.75391 34.2078 9.77344 34.2078 11.0625V12.2695ZM53.968 5.32031V18H51.8937V7.11328H48.5539L48.3547 11.4141C48.2453 13.7969 47.925 15.4883 47.3937 16.4883C46.8625 17.4805 46.0109 17.9844 44.8391 18H44.1477V16.0898L44.675 16.043C45.2531 15.9648 45.6594 15.5781 45.8937 14.8828C46.1359 14.1797 46.2961 12.8008 46.3742 10.7461L46.5734 5.32031H53.968ZM64.3883 18C64.2633 17.7266 64.1734 17.2656 64.1188 16.6172C63.3844 17.6953 62.4469 18.2344 61.3063 18.2344C60.1578 18.2344 59.2594 17.9141 58.6109 17.2734C57.9703 16.625 57.65 15.7148 57.65 14.543C57.65 13.2539 58.0875 12.2305 58.9625 11.4727C59.8375 10.7148 61.0367 10.3281 62.5602 10.3125H64.0836V8.96484C64.0836 8.20703 63.9156 7.66797 63.5797 7.34766C63.2438 7.02734 62.732 6.86719 62.0445 6.86719C61.4195 6.86719 60.9117 7.05469 60.5211 7.42969C60.1305 7.79688 59.9352 8.26562 59.9352 8.83594H57.8609C57.8609 8.1875 58.0523 7.57031 58.4352 6.98438C58.818 6.39062 59.3336 5.92578 59.982 5.58984C60.6305 5.25391 61.3531 5.08594 62.15 5.08594C63.4469 5.08594 64.4313 5.41016 65.1031 6.05859C65.7828 6.69922 66.1305 7.63672 66.1461 8.87109V15.2695C66.1539 16.2461 66.2867 17.0938 66.5445 17.8125V18H64.3883ZM61.6227 16.3477C62.1305 16.3477 62.6148 16.207 63.0758 15.9258C63.5367 15.6445 63.8727 15.293 64.0836 14.8711V11.8477H62.9117C61.9273 11.8633 61.15 12.0859 60.5797 12.5156C60.0094 12.9375 59.7242 13.5312 59.7242 14.2969C59.7242 15.0156 59.8688 15.5391 60.1578 15.8672C60.4469 16.1875 60.9352 16.3477 61.6227 16.3477ZM80.4828 16.4648C81.1703 16.4648 81.7211 16.2539 82.1352 15.832C82.5492 15.4023 82.7758 14.793 82.8148 14.0039H84.7719C84.725 15.2227 84.2914 16.2344 83.4711 17.0391C82.6586 17.8359 81.6625 18.2344 80.4828 18.2344C78.9125 18.2344 77.7133 17.7422 76.8852 16.7578C76.0648 15.7656 75.6547 14.293 75.6547 12.3398V10.9453C75.6547 9.03125 76.0648 7.57812 76.8852 6.58594C77.7055 5.58594 78.9008 5.08594 80.4711 5.08594C81.768 5.08594 82.7953 5.49609 83.5531 6.31641C84.3187 7.13672 84.725 8.25781 84.7719 9.67969H82.8148C82.768 8.74219 82.5414 8.03906 82.1352 7.57031C81.7367 7.10156 81.182 6.86719 80.4711 6.86719C79.5492 6.86719 78.8656 7.17188 78.4203 7.78125C77.975 8.38281 77.7445 9.375 77.7289 10.7578V12.375C77.7289 13.8672 77.9477 14.9219 78.3852 15.5391C78.8305 16.1562 79.5297 16.4648 80.4828 16.4648ZM92.2977 18.2344C90.7195 18.2344 89.5086 17.7656 88.6648 16.8281C87.8211 15.8828 87.3914 14.5 87.3758 12.6797V11.1445C87.3758 9.25391 87.7859 7.77344 88.6062 6.70312C89.4344 5.625 90.5867 5.08594 92.0633 5.08594C93.5477 5.08594 94.657 5.55859 95.3914 6.50391C96.1258 7.44922 96.5008 8.92188 96.5164 10.9219V12.2812H89.4383V12.5742C89.4383 13.9336 89.6922 14.9219 90.2 15.5391C90.7156 16.1562 91.4539 16.4648 92.4148 16.4648C93.0242 16.4648 93.5594 16.3516 94.0203 16.125C94.4891 15.8906 94.9266 15.5234 95.3328 15.0234L96.4109 16.3359C95.5125 17.6016 94.1414 18.2344 92.2977 18.2344ZM92.0633 6.86719C91.2039 6.86719 90.5672 7.16406 90.1531 7.75781C89.7391 8.34375 89.5047 9.25781 89.45 10.5H94.4422V10.2188C94.3875 9.01562 94.1687 8.15625 93.7859 7.64062C93.4109 7.125 92.8367 6.86719 92.0633 6.86719ZM108.777 12.2695C108.777 14.2773 108.413 15.7734 107.687 16.7578C106.968 17.7422 105.948 18.2344 104.628 18.2344C103.355 18.2344 102.374 17.7539 101.687 16.793V22.875H99.6242V5.32031H101.499L101.605 6.72656C102.3 5.63281 103.296 5.08594 104.593 5.08594C105.984 5.08594 107.023 5.57031 107.71 6.53906C108.398 7.50781 108.753 8.95703 108.777 10.8867V12.2695ZM106.714 11.0859C106.714 9.66406 106.495 8.61719 106.058 7.94531C105.62 7.26562 104.917 6.92578 103.948 6.92578C102.956 6.92578 102.202 7.42188 101.687 8.41406V15.0117C102.195 15.9805 102.956 16.4648 103.972 16.4648C104.909 16.4648 105.597 16.1289 106.034 15.457C106.48 14.7773 106.706 13.7422 106.714 12.3516V11.0859ZM111.673 11.8945C111.673 9.78516 112.017 8.125 112.705 6.91406C113.392 5.69531 114.341 5.08594 115.552 5.08594C116.052 5.08594 116.505 5.17188 116.912 5.34375V0H118.986V5.41406C119.423 5.19531 119.935 5.08594 120.521 5.08594C121.74 5.08594 122.693 5.69141 123.38 6.90234C124.068 8.11328 124.412 9.85938 124.412 12.1406C124.412 14.0391 124.068 15.5312 123.38 16.6172C122.693 17.7031 121.748 18.2461 120.545 18.2461C119.951 18.2461 119.431 18.1445 118.986 17.9414V22.875H116.912V18C116.482 18.1641 116.025 18.2461 115.541 18.2461C114.338 18.2461 113.392 17.6992 112.705 16.6055C112.017 15.5039 111.673 13.9336 111.673 11.8945ZM122.349 11.8945C122.349 10.3008 122.134 9.06641 121.705 8.19141C121.275 7.30859 120.67 6.86719 119.888 6.86719C119.552 6.86719 119.252 6.92578 118.986 7.04297V16.3359C119.228 16.4297 119.537 16.4766 119.912 16.4766C120.685 16.4766 121.283 16.1016 121.705 15.3516C122.134 14.6016 122.349 13.4492 122.349 11.8945ZM113.748 12.1406C113.748 13.5781 113.943 14.6602 114.334 15.3867C114.732 16.1133 115.314 16.4766 116.08 16.4766C116.392 16.4766 116.67 16.4336 116.912 16.3477V7.00781C116.63 6.91406 116.361 6.86719 116.103 6.86719C115.33 6.86719 114.744 7.29297 114.345 8.14453C113.947 8.98828 113.748 10.3203 113.748 12.1406ZM134.598 5.32031H136.66V18H134.598V8.75391L130.004 18H127.93V5.32031H130.004V14.5781L134.598 5.32031ZM149.483 18H147.42V12.5859H142.85V18H140.764V5.32031H142.85V10.8164H147.42V5.32031H149.483V18ZM160.36 7.11328H155.637V18H153.552V5.32031H160.36V7.11328ZM169.421 18C169.296 17.7266 169.206 17.2656 169.152 16.6172C168.417 17.6953 167.48 18.2344 166.339 18.2344C165.191 18.2344 164.292 17.9141 163.644 17.2734C163.003 16.625 162.683 15.7148 162.683 14.543C162.683 13.2539 163.12 12.2305 163.995 11.4727C164.87 10.7148 166.07 10.3281 167.593 10.3125H169.116V8.96484C169.116 8.20703 168.948 7.66797 168.613 7.34766C168.277 7.02734 167.765 6.86719 167.077 6.86719C166.452 6.86719 165.945 7.05469 165.554 7.42969C165.163 7.79688 164.968 8.26562 164.968 8.83594H162.894C162.894 8.1875 163.085 7.57031 163.468 6.98438C163.851 6.39062 164.366 5.92578 165.015 5.58984C165.663 5.25391 166.386 5.08594 167.183 5.08594C168.48 5.08594 169.464 5.41016 170.136 6.05859C170.816 6.69922 171.163 7.63672 171.179 8.87109V15.2695C171.187 16.2461 171.32 17.0938 171.577 17.8125V18H169.421ZM166.655 16.3477C167.163 16.3477 167.648 16.207 168.109 15.9258C168.57 15.6445 168.905 15.293 169.116 14.8711V11.8477H167.945C166.96 11.8633 166.183 12.0859 165.613 12.5156C165.042 12.9375 164.757 13.5312 164.757 14.2969C164.757 15.0156 164.902 15.5391 165.191 15.8672C165.48 16.1875 165.968 16.3477 166.655 16.3477ZM190.016 18H187.953V12.5859H183.383V18H181.297V5.32031H183.383V10.8164H187.953V5.32031H190.016V18ZM200.448 18C200.323 17.7266 200.233 17.2656 200.178 16.6172C199.444 17.6953 198.506 18.2344 197.366 18.2344C196.217 18.2344 195.319 17.9141 194.67 17.2734C194.03 16.625 193.709 15.7148 193.709 14.543C193.709 13.2539 194.147 12.2305 195.022 11.4727C195.897 10.7148 197.096 10.3281 198.62 10.3125H200.143V8.96484C200.143 8.20703 199.975 7.66797 199.639 7.34766C199.303 7.02734 198.791 6.86719 198.104 6.86719C197.479 6.86719 196.971 7.05469 196.58 7.42969C196.19 7.79688 195.995 8.26562 195.995 8.83594H193.92C193.92 8.1875 194.112 7.57031 194.495 6.98438C194.877 6.39062 195.393 5.92578 196.041 5.58984C196.69 5.25391 197.413 5.08594 198.209 5.08594C199.506 5.08594 200.491 5.41016 201.163 6.05859C201.842 6.69922 202.19 7.63672 202.205 8.87109V15.2695C202.213 16.2461 202.346 17.0938 202.604 17.8125V18H200.448ZM197.682 16.3477C198.19 16.3477 198.674 16.207 199.135 15.9258C199.596 15.6445 199.932 15.293 200.143 14.8711V11.8477H198.971C197.987 11.8633 197.209 12.0859 196.639 12.5156C196.069 12.9375 195.784 13.5312 195.784 14.2969C195.784 15.0156 195.928 15.5391 196.217 15.8672C196.506 16.1875 196.995 16.3477 197.682 16.3477ZM215.581 12.5977H214.409V18H212.335V5.32031H214.409V10.6875H215.441L218.898 5.32031H221.37L217.14 11.3555L221.675 18H219.073L215.581 12.5977ZM230.795 18C230.67 17.7266 230.58 17.2656 230.525 16.6172C229.791 17.6953 228.853 18.2344 227.712 18.2344C226.564 18.2344 225.666 17.9141 225.017 17.2734C224.377 16.625 224.056 15.7148 224.056 14.543C224.056 13.2539 224.494 12.2305 225.369 11.4727C226.244 10.7148 227.443 10.3281 228.966 10.3125H230.49V8.96484C230.49 8.20703 230.322 7.66797 229.986 7.34766C229.65 7.02734 229.138 6.86719 228.451 6.86719C227.826 6.86719 227.318 7.05469 226.927 7.42969C226.537 7.79688 226.341 8.26562 226.341 8.83594H224.267C224.267 8.1875 224.459 7.57031 224.841 6.98438C225.224 6.39062 225.74 5.92578 226.388 5.58984C227.037 5.25391 227.759 5.08594 228.556 5.08594C229.853 5.08594 230.837 5.41016 231.509 6.05859C232.189 6.69922 232.537 7.63672 232.552 8.87109V15.2695C232.56 16.2461 232.693 17.0938 232.951 17.8125V18H230.795ZM228.029 16.3477C228.537 16.3477 229.021 16.207 229.482 15.9258C229.943 15.6445 230.279 15.293 230.49 14.8711V11.8477H229.318C228.334 11.8633 227.556 12.0859 226.986 12.5156C226.416 12.9375 226.13 13.5312 226.13 14.2969C226.13 15.0156 226.275 15.5391 226.564 15.8672C226.853 16.1875 227.341 16.3477 228.029 16.3477ZM245.281 18H243.219V12.5859H238.648V18H236.562V5.32031H238.648V10.8164H243.219V5.32031H245.281V18ZM255.713 18C255.588 17.7266 255.498 17.2656 255.444 16.6172C254.709 17.6953 253.772 18.2344 252.631 18.2344C251.483 18.2344 250.584 17.9141 249.936 17.2734C249.295 16.625 248.975 15.7148 248.975 14.543C248.975 13.2539 249.413 12.2305 250.288 11.4727C251.163 10.7148 252.362 10.3281 253.885 10.3125H255.409V8.96484C255.409 8.20703 255.241 7.66797 254.905 7.34766C254.569 7.02734 254.057 6.86719 253.37 6.86719C252.745 6.86719 252.237 7.05469 251.846 7.42969C251.455 7.79688 251.26 8.26562 251.26 8.83594H249.186C249.186 8.1875 249.377 7.57031 249.76 6.98438C250.143 6.39062 250.659 5.92578 251.307 5.58984C251.955 5.25391 252.678 5.08594 253.475 5.08594C254.772 5.08594 255.756 5.41016 256.428 6.05859C257.108 6.69922 257.455 7.63672 257.471 8.87109V15.2695C257.479 16.2461 257.612 17.0938 257.87 17.8125V18H255.713ZM252.948 16.3477C253.455 16.3477 253.94 16.207 254.401 15.9258C254.862 15.6445 255.198 15.293 255.409 14.8711V11.8477H254.237C253.252 11.8633 252.475 12.0859 251.905 12.5156C251.334 12.9375 251.049 13.5312 251.049 14.2969C251.049 15.0156 251.194 15.5391 251.483 15.8672C251.772 16.1875 252.26 16.3477 252.948 16.3477ZM270.458 12.2695C270.458 14.2773 270.095 15.7734 269.368 16.7578C268.649 17.7422 267.63 18.2344 266.309 18.2344C265.036 18.2344 264.055 17.7539 263.368 16.793V22.875H261.305V5.32031H263.18L263.286 6.72656C263.981 5.63281 264.977 5.08594 266.274 5.08594C267.665 5.08594 268.704 5.57031 269.391 6.53906C270.079 7.50781 270.434 8.95703 270.458 10.8867V12.2695ZM268.395 11.0859C268.395 9.66406 268.177 8.61719 267.739 7.94531C267.302 7.26562 266.598 6.92578 265.63 6.92578C264.638 6.92578 263.884 7.42188 263.368 8.41406V15.0117C263.876 15.9805 264.638 16.4648 265.653 16.4648C266.591 16.4648 267.278 16.1289 267.716 15.457C268.161 14.7773 268.388 13.7422 268.395 12.3516V11.0859ZM278.136 16.4648C278.823 16.4648 279.374 16.2539 279.788 15.832C280.202 15.4023 280.429 14.793 280.468 14.0039H282.425C282.378 15.2227 281.945 16.2344 281.124 17.0391C280.312 17.8359 279.316 18.2344 278.136 18.2344C276.566 18.2344 275.366 17.7422 274.538 16.7578C273.718 15.7656 273.308 14.293 273.308 12.3398V10.9453C273.308 9.03125 273.718 7.57812 274.538 6.58594C275.359 5.58594 276.554 5.08594 278.124 5.08594C279.421 5.08594 280.448 5.49609 281.206 6.31641C281.972 7.13672 282.378 8.25781 282.425 9.67969H280.468C280.421 8.74219 280.195 8.03906 279.788 7.57031C279.39 7.10156 278.835 6.86719 278.124 6.86719C277.202 6.86719 276.519 7.17188 276.073 7.78125C275.628 8.38281 275.398 9.375 275.382 10.7578V12.375C275.382 13.8672 275.601 14.9219 276.038 15.5391C276.484 16.1562 277.183 16.4648 278.136 16.4648ZM288.861 12.5977H287.689V18H285.615V5.32031H287.689V10.6875H288.72L292.177 5.32031H294.65L290.42 11.3555L294.955 18H292.353L288.861 12.5977ZM304.402 5.32031H306.465V18H304.402V8.75391L299.809 18H297.734V5.32031H299.809V14.5781L304.402 5.32031ZM314.049 9.94922L316.217 5.32031H318.62L315.174 11.5898L318.702 18H316.323L314.084 13.2539L311.834 18H309.444L312.971 11.5898L309.538 5.32031H311.916L314.049 9.94922ZM339.027 10.9688C339.027 13.2969 338.53 15.0898 337.538 16.3477C336.546 17.6055 335.136 18.2344 333.308 18.2344C331.55 18.2344 330.159 17.625 329.136 16.4062C328.12 15.1797 327.593 13.4492 327.554 11.2148V8.00391C327.554 5.72266 328.058 3.9375 329.066 2.64844C330.073 1.35156 331.48 0.703125 333.284 0.703125C335.081 0.703125 336.48 1.32422 337.48 2.56641C338.487 3.80078 339.003 5.56641 339.027 7.86328V10.9688ZM336.882 7.98047C336.882 6.17578 336.585 4.83594 335.991 3.96094C335.405 3.07813 334.503 2.63672 333.284 2.63672C332.105 2.63672 331.21 3.08203 330.601 3.97266C329.999 4.86328 329.695 6.17578 329.687 7.91016V10.9688C329.687 12.7109 329.987 14.0391 330.589 14.9531C331.198 15.8672 332.105 16.3242 333.308 16.3242C334.511 16.3242 335.402 15.9023 335.98 15.0586C336.558 14.2148 336.859 12.9219 336.882 11.1797V7.98047ZM347.056 16.4648C347.744 16.4648 348.295 16.2539 348.709 15.832C349.123 15.4023 349.349 14.793 349.388 14.0039H351.345C351.298 15.2227 350.865 16.2344 350.045 17.0391C349.232 17.8359 348.236 18.2344 347.056 18.2344C345.486 18.2344 344.287 17.7422 343.459 16.7578C342.638 15.7656 342.228 14.293 342.228 12.3398V10.9453C342.228 9.03125 342.638 7.57812 343.459 6.58594C344.279 5.58594 345.474 5.08594 347.045 5.08594C348.341 5.08594 349.369 5.49609 350.127 6.31641C350.892 7.13672 351.298 8.25781 351.345 9.67969H349.388C349.341 8.74219 349.115 8.03906 348.709 7.57031C348.31 7.10156 347.755 6.86719 347.045 6.86719C346.123 6.86719 345.439 7.17188 344.994 7.78125C344.548 8.38281 344.318 9.375 344.302 10.7578V12.375C344.302 13.8672 344.521 14.9219 344.959 15.5391C345.404 16.1562 346.103 16.4648 347.056 16.4648ZM362.352 7.07812H358.895V18H356.832V7.07812H353.422V5.32031H362.352V7.07812ZM374.295 12.2695C374.295 14.2773 373.932 15.7734 373.205 16.7578C372.487 17.7422 371.467 18.2344 370.147 18.2344C368.873 18.2344 367.893 17.7539 367.205 16.793V22.875H365.143V5.32031H367.018L367.123 6.72656C367.819 5.63281 368.815 5.08594 370.112 5.08594C371.502 5.08594 372.541 5.57031 373.229 6.53906C373.916 7.50781 374.272 8.95703 374.295 10.8867V12.2695ZM372.233 11.0859C372.233 9.66406 372.014 8.61719 371.577 7.94531C371.139 7.26562 370.436 6.92578 369.467 6.92578C368.475 6.92578 367.721 7.42188 367.205 8.41406V15.0117C367.713 15.9805 368.475 16.4648 369.491 16.4648C370.428 16.4648 371.116 16.1289 371.553 15.457C371.998 14.7773 372.225 13.7422 372.233 12.3516V11.0859ZM377.134 11.0742C377.134 9.23047 377.579 7.77344 378.47 6.70312C379.368 5.625 380.552 5.08594 382.02 5.08594C383.489 5.08594 384.669 5.60938 385.559 6.65625C386.458 7.70312 386.919 9.12891 386.942 10.9336V12.2695C386.942 14.1055 386.497 15.5586 385.606 16.6289C384.716 17.6992 383.528 18.2344 382.044 18.2344C380.575 18.2344 379.395 17.7148 378.505 16.6758C377.622 15.6367 377.165 14.2305 377.134 12.457V11.0742ZM379.208 12.2695C379.208 13.5742 379.462 14.6016 379.97 15.3516C380.485 16.0938 381.177 16.4648 382.044 16.4648C383.872 16.4648 384.813 15.1445 384.868 12.5039V11.0742C384.868 9.77734 384.61 8.75391 384.095 8.00391C383.579 7.24609 382.888 6.86719 382.02 6.86719C381.169 6.86719 380.485 7.24609 379.97 8.00391C379.462 8.75391 379.208 9.77344 379.208 11.0625V12.2695ZM390.402 18V5.32031H394.655C396.109 5.32031 397.218 5.61719 397.984 6.21094C398.749 6.80469 399.132 7.66797 399.132 8.80078C399.132 9.38672 398.98 9.91406 398.675 10.3828C398.37 10.8516 397.925 11.2109 397.339 11.4609C397.987 11.6328 398.507 11.9805 398.898 12.5039C399.296 13.0273 399.495 13.6602 399.495 14.4023C399.495 15.5742 399.128 16.4688 398.394 17.0859C397.667 17.6953 396.636 18 395.3 18H390.402ZM392.464 12.4336V16.2539H395.323C396.722 16.2539 397.421 15.6133 397.421 14.332C397.421 13.0664 396.714 12.4336 395.3 12.4336H392.464ZM392.464 10.6992H394.632C396.249 10.6992 397.058 10.1055 397.058 8.91797C397.058 7.72266 396.296 7.10938 394.773 7.07812H392.464V10.6992ZM409.435 18C409.31 17.7266 409.22 17.2656 409.166 16.6172C408.431 17.6953 407.494 18.2344 406.353 18.2344C405.205 18.2344 404.306 17.9141 403.658 17.2734C403.017 16.625 402.697 15.7148 402.697 14.543C402.697 13.2539 403.134 12.2305 404.009 11.4727C404.884 10.7148 406.084 10.3281 407.607 10.3125H409.13V8.96484C409.13 8.20703 408.962 7.66797 408.627 7.34766C408.291 7.02734 407.779 6.86719 407.091 6.86719C406.466 6.86719 405.959 7.05469 405.568 7.42969C405.177 7.79688 404.982 8.26562 404.982 8.83594H402.908C402.908 8.1875 403.099 7.57031 403.482 6.98438C403.865 6.39062 404.38 5.92578 405.029 5.58984C405.677 5.25391 406.4 5.08594 407.197 5.08594C408.494 5.08594 409.478 5.41016 410.15 6.05859C410.83 6.69922 411.177 7.63672 411.193 8.87109V15.2695C411.201 16.2461 411.334 17.0938 411.591 17.8125V18H409.435ZM406.67 16.3477C407.177 16.3477 407.662 16.207 408.123 15.9258C408.584 15.6445 408.92 15.293 409.13 14.8711V11.8477H407.959C406.974 11.8633 406.197 12.0859 405.627 12.5156C405.056 12.9375 404.771 13.5312 404.771 14.2969C404.771 15.0156 404.916 15.5391 405.205 15.8672C405.494 16.1875 405.982 16.3477 406.67 16.3477ZM418.684 9.94922L420.852 5.32031H423.254L419.809 11.5898L423.336 18H420.957L418.719 13.2539L416.469 18H414.078L417.605 11.5898L414.172 5.32031H416.551L418.684 9.94922Z" fill="black"/>
</svg>
